<mxfile host="app.diagrams.net" agent="Mozilla/5.0 (Macintosh; Intel Mac OS X 10_15_7) AppleWebKit/537.36 (KHTML, like Gecko) Chrome/128.0.0.0 Safari/537.36" version="24.8.0">
  <diagram name="Страница — 1" id="iT6ovLkEOOWMwyiTSNYu">
    <mxGraphModel dx="718" dy="432" grid="1" gridSize="10" guides="1" tooltips="1" connect="1" arrows="1" fold="1" page="1" pageScale="1" pageWidth="827" pageHeight="1169" background="#FFFFFF" math="0" shadow="0">
      <root>
        <mxCell id="0" />
        <mxCell id="1" parent="0" />
        <mxCell id="gbMeWAc4eFgvEXpcVc5o-60" style="edgeStyle=orthogonalEdgeStyle;rounded=0;orthogonalLoop=1;jettySize=auto;html=1;exitX=0.5;exitY=1;exitDx=0;exitDy=0;strokeColor=#23445D;" parent="1" edge="1">
          <mxGeometry relative="1" as="geometry">
            <mxPoint x="420" y="420" as="sourcePoint" />
            <mxPoint x="420" y="420" as="targetPoint" />
          </mxGeometry>
        </mxCell>
        <mxCell id="gbMeWAc4eFgvEXpcVc5o-77" value="" style="group" parent="1" vertex="1" connectable="0">
          <mxGeometry x="270" y="80" width="320" height="310" as="geometry" />
        </mxCell>
        <mxCell id="gbMeWAc4eFgvEXpcVc5o-11" value="" style="group" parent="gbMeWAc4eFgvEXpcVc5o-77" vertex="1" connectable="0">
          <mxGeometry width="320" height="310" as="geometry" />
        </mxCell>
        <mxCell id="gbMeWAc4eFgvEXpcVc5o-84" value="&lt;font color=&quot;#000000&quot; style=&quot;font-size: 10px;&quot; face=&quot;Garamond&quot;&gt;Экран 2. Выбор поовреждения&lt;/font&gt;" style="rounded=0;whiteSpace=wrap;html=1;strokeColor=#808080;fontColor=#FFFFFF;fillColor=#E6E6E6;" parent="gbMeWAc4eFgvEXpcVc5o-11" vertex="1">
          <mxGeometry x="180" y="-30" width="140" height="10" as="geometry" />
        </mxCell>
        <mxCell id="gbMeWAc4eFgvEXpcVc5o-94" value="" style="group" parent="gbMeWAc4eFgvEXpcVc5o-11" vertex="1" connectable="0">
          <mxGeometry x="180" width="140" height="280" as="geometry" />
        </mxCell>
        <mxCell id="gbMeWAc4eFgvEXpcVc5o-71" value="" style="rounded=1;whiteSpace=wrap;html=1;strokeColor=#000000;fontColor=#FFFFFF;fillColor=#FAE8FF;" parent="gbMeWAc4eFgvEXpcVc5o-94" vertex="1">
          <mxGeometry width="140" height="280" as="geometry" />
        </mxCell>
        <mxCell id="gbMeWAc4eFgvEXpcVc5o-82" value="&lt;font size=&quot;1&quot; style=&quot;&quot; face=&quot;Garamond&quot; color=&quot;#000000&quot;&gt;&lt;b style=&quot;font-size: 11px;&quot;&gt;Выберите причину неисправности&lt;/b&gt;&lt;/font&gt;" style="text;html=1;align=center;verticalAlign=middle;whiteSpace=wrap;rounded=0;fontColor=#FFFFFF;" parent="gbMeWAc4eFgvEXpcVc5o-94" vertex="1">
          <mxGeometry x="15" y="20" width="110" height="30" as="geometry" />
        </mxCell>
        <mxCell id="gbMeWAc4eFgvEXpcVc5o-86" value="&lt;font face=&quot;Garamond&quot; style=&quot;font-size: 11px;&quot;&gt;Не реагирует курок газа&lt;/font&gt;" style="rounded=1;whiteSpace=wrap;html=1;strokeColor=#FFFFFF;fontColor=#FFFFFF;fillColor=#6666FF;arcSize=37;" parent="gbMeWAc4eFgvEXpcVc5o-94" vertex="1">
          <mxGeometry x="10" y="70" width="120" height="20" as="geometry" />
        </mxCell>
        <mxCell id="gbMeWAc4eFgvEXpcVc5o-87" value="&lt;font face=&quot;Garamond&quot; style=&quot;font-size: 11px;&quot;&gt;Не работает левый рычаг тормоза&lt;/font&gt;" style="rounded=1;whiteSpace=wrap;html=1;strokeColor=#FFFFFF;fontColor=#FFFFFF;fillColor=#6666FF;arcSize=37;" parent="gbMeWAc4eFgvEXpcVc5o-94" vertex="1">
          <mxGeometry x="10" y="100" width="120" height="30" as="geometry" />
        </mxCell>
        <mxCell id="gbMeWAc4eFgvEXpcVc5o-88" value="&lt;span style=&quot;font-family: Garamond; font-size: 11px;&quot;&gt;Не работает правый рычаг тормоза&lt;/span&gt;" style="rounded=1;whiteSpace=wrap;html=1;strokeColor=#FFFFFF;fontColor=#FFFFFF;fillColor=#6666FF;arcSize=37;" parent="gbMeWAc4eFgvEXpcVc5o-94" vertex="1">
          <mxGeometry x="10" y="140" width="120" height="30" as="geometry" />
        </mxCell>
        <mxCell id="gbMeWAc4eFgvEXpcVc5o-89" value="&lt;font face=&quot;Garamond&quot; style=&quot;font-size: 11px;&quot;&gt;Искривление колеса (самокат петляет)&lt;/font&gt;" style="rounded=1;whiteSpace=wrap;html=1;strokeColor=#FFFFFF;fontColor=#FFFFFF;fillColor=#6666FF;arcSize=37;" parent="gbMeWAc4eFgvEXpcVc5o-94" vertex="1">
          <mxGeometry x="10" y="180" width="120" height="30" as="geometry" />
        </mxCell>
        <mxCell id="gbMeWAc4eFgvEXpcVc5o-90" value="&lt;font face=&quot;Garamond&quot; style=&quot;font-size: 11px;&quot;&gt;Что-то еще&lt;/font&gt;" style="rounded=1;whiteSpace=wrap;html=1;strokeColor=#FFFFFF;fontColor=#FFFFFF;fillColor=#6666FF;arcSize=37;" parent="gbMeWAc4eFgvEXpcVc5o-94" vertex="1">
          <mxGeometry x="10" y="220" width="120" height="20" as="geometry" />
        </mxCell>
        <mxCell id="gbMeWAc4eFgvEXpcVc5o-103" value="" style="rounded=1;whiteSpace=wrap;html=1;strokeColor=#000000;fontColor=#FFFFFF;fillColor=#FAE8FF;" parent="gbMeWAc4eFgvEXpcVc5o-11" vertex="1">
          <mxGeometry x="-30" width="140" height="280" as="geometry" />
        </mxCell>
        <mxCell id="gbMeWAc4eFgvEXpcVc5o-136" value="" style="rounded=1;whiteSpace=wrap;html=1;strokeColor=#000000;fontColor=#FFFFFF;fillColor=#FFFFFF;" parent="gbMeWAc4eFgvEXpcVc5o-11" vertex="1">
          <mxGeometry x="-30" y="160" width="140" height="120" as="geometry" />
        </mxCell>
        <mxCell id="gbMeWAc4eFgvEXpcVc5o-137" value="" style="line;strokeWidth=2;html=1;strokeColor=#E6E6E6;fontColor=#FFFFFF;fillColor=#182E3E;" parent="gbMeWAc4eFgvEXpcVc5o-11" vertex="1">
          <mxGeometry x="30" y="160" width="20" height="10" as="geometry" />
        </mxCell>
        <mxCell id="gbMeWAc4eFgvEXpcVc5o-138" value="&lt;span style=&quot;font-family: Garamond;&quot;&gt;&lt;b style=&quot;&quot;&gt;&lt;font style=&quot;font-size: 12px;&quot;&gt;Завершить?&lt;/font&gt;&lt;/b&gt;&lt;/span&gt;" style="text;html=1;align=center;verticalAlign=middle;whiteSpace=wrap;rounded=0;fontColor=#000000;fontFamily=Helvetica;" parent="gbMeWAc4eFgvEXpcVc5o-11" vertex="1">
          <mxGeometry x="-10" y="180" width="50" height="10" as="geometry" />
        </mxCell>
        <mxCell id="gbMeWAc4eFgvEXpcVc5o-140" value="&lt;span style=&quot;font-size: 11px;&quot;&gt;&lt;font face=&quot;Garamond&quot;&gt;Да, сделать фото&lt;/font&gt;&lt;/span&gt;" style="rounded=1;whiteSpace=wrap;html=1;strokeColor=#FFFFFF;fontColor=#FFFFFF;fillColor=#6666FF;arcSize=37;" parent="gbMeWAc4eFgvEXpcVc5o-11" vertex="1">
          <mxGeometry x="-20" y="207.5" width="120" height="20" as="geometry" />
        </mxCell>
        <mxCell id="HiUm5hrCSIXa4_qHgKS4-17" value="" style="edgeStyle=orthogonalEdgeStyle;rounded=0;orthogonalLoop=1;jettySize=auto;html=1;entryX=0;entryY=0.5;entryDx=0;entryDy=0;" edge="1" parent="gbMeWAc4eFgvEXpcVc5o-11" source="gbMeWAc4eFgvEXpcVc5o-141" target="gbMeWAc4eFgvEXpcVc5o-71">
          <mxGeometry relative="1" as="geometry" />
        </mxCell>
        <mxCell id="gbMeWAc4eFgvEXpcVc5o-141" value="&lt;span style=&quot;font-size: 11px;&quot;&gt;&lt;font face=&quot;Garamond&quot;&gt;Самокат неисправен&lt;/font&gt;&lt;/span&gt;" style="rounded=1;whiteSpace=wrap;html=1;strokeColor=#FFFFFF;fontColor=#FFFFFF;fillColor=#6666FF;arcSize=37;" parent="gbMeWAc4eFgvEXpcVc5o-11" vertex="1">
          <mxGeometry x="-20" y="240" width="120" height="20" as="geometry" />
        </mxCell>
        <mxCell id="gbMeWAc4eFgvEXpcVc5o-142" value="&lt;font style=&quot;font-size: 10px;&quot; color=&quot;#000000&quot; face=&quot;Garamond&quot;&gt;+ Взять еще&lt;/font&gt;" style="rounded=1;whiteSpace=wrap;html=1;strokeColor=#000000;fontColor=#FFFFFF;fillColor=#FFFFFF;arcSize=50;" parent="gbMeWAc4eFgvEXpcVc5o-11" vertex="1">
          <mxGeometry x="-25" y="10" width="60" height="20" as="geometry" />
        </mxCell>
        <mxCell id="gbMeWAc4eFgvEXpcVc5o-143" value="Карта" style="text;html=1;align=center;verticalAlign=middle;whiteSpace=wrap;rounded=0;fontColor=#FFFFFF;" parent="gbMeWAc4eFgvEXpcVc5o-11" vertex="1">
          <mxGeometry x="5" y="85" width="60" height="30" as="geometry" />
        </mxCell>
        <mxCell id="HiUm5hrCSIXa4_qHgKS4-6" value="" style="group" vertex="1" connectable="0" parent="gbMeWAc4eFgvEXpcVc5o-11">
          <mxGeometry x="80" y="90" width="20" height="40" as="geometry" />
        </mxCell>
        <mxCell id="HiUm5hrCSIXa4_qHgKS4-7" value="" style="rounded=1;whiteSpace=wrap;html=1;strokeColor=#000000;fontColor=#FFFFFF;fillColor=#FFFFFF;rotation=90;" vertex="1" parent="HiUm5hrCSIXa4_qHgKS4-6">
          <mxGeometry x="-10" y="10" width="40" height="20" as="geometry" />
        </mxCell>
        <mxCell id="HiUm5hrCSIXa4_qHgKS4-8" value="+" style="text;html=1;align=center;verticalAlign=middle;whiteSpace=wrap;rounded=0;fontColor=#000000;" vertex="1" parent="HiUm5hrCSIXa4_qHgKS4-6">
          <mxGeometry y="5" width="20" height="10" as="geometry" />
        </mxCell>
        <mxCell id="HiUm5hrCSIXa4_qHgKS4-9" value="" style="line;strokeWidth=2;html=1;strokeColor=#E6E6E6;fontColor=#FFFFFF;fillColor=#182E3E;" vertex="1" parent="HiUm5hrCSIXa4_qHgKS4-6">
          <mxGeometry y="15" width="20" height="15" as="geometry" />
        </mxCell>
        <mxCell id="HiUm5hrCSIXa4_qHgKS4-10" value="-" style="text;html=1;align=center;verticalAlign=middle;whiteSpace=wrap;rounded=0;fontColor=#000000;" vertex="1" parent="HiUm5hrCSIXa4_qHgKS4-6">
          <mxGeometry y="25" width="20" height="10" as="geometry" />
        </mxCell>
        <mxCell id="gbMeWAc4eFgvEXpcVc5o-85" value="&lt;font color=&quot;#000000&quot; style=&quot;font-size: 10px;&quot; face=&quot;Garamond&quot;&gt;Экран 3. Выбор неисправности&lt;/font&gt;" style="rounded=0;whiteSpace=wrap;html=1;strokeColor=#808080;fontColor=#FFFFFF;fillColor=#E6E6E6;" parent="1" vertex="1">
          <mxGeometry x="450" y="50" width="140" height="20" as="geometry" />
        </mxCell>
        <mxCell id="gbMeWAc4eFgvEXpcVc5o-91" value="" style="edgeStyle=orthogonalEdgeStyle;rounded=0;orthogonalLoop=1;jettySize=auto;html=1;strokeColor=#23445D;exitX=1;exitY=0.5;exitDx=0;exitDy=0;" parent="1" source="gbMeWAc4eFgvEXpcVc5o-71" target="gbMeWAc4eFgvEXpcVc5o-81" edge="1">
          <mxGeometry relative="1" as="geometry" />
        </mxCell>
        <mxCell id="gbMeWAc4eFgvEXpcVc5o-93" value="&lt;font color=&quot;#000000&quot; style=&quot;font-size: 10px;&quot; face=&quot;Garamond&quot;&gt;Экран 4.&amp;nbsp;&lt;/font&gt;&lt;span style=&quot;color: rgb(0, 0, 0); font-family: Garamond; font-size: 10px;&quot;&gt;Описание повреждения&lt;/span&gt;" style="rounded=0;whiteSpace=wrap;html=1;strokeColor=#808080;fontColor=#FFFFFF;fillColor=#E6E6E6;" parent="1" vertex="1">
          <mxGeometry x="660" y="50" width="140" height="20" as="geometry" />
        </mxCell>
        <mxCell id="gbMeWAc4eFgvEXpcVc5o-101" value="" style="group" parent="1" vertex="1" connectable="0">
          <mxGeometry x="660" y="80" width="140" height="280" as="geometry" />
        </mxCell>
        <mxCell id="gbMeWAc4eFgvEXpcVc5o-81" value="" style="rounded=1;whiteSpace=wrap;html=1;strokeColor=#000000;fontColor=#FFFFFF;fillColor=#FAE8FF;" parent="gbMeWAc4eFgvEXpcVc5o-101" vertex="1">
          <mxGeometry width="140" height="280" as="geometry" />
        </mxCell>
        <mxCell id="gbMeWAc4eFgvEXpcVc5o-95" value="&lt;font size=&quot;1&quot; style=&quot;&quot; face=&quot;Garamond&quot; color=&quot;#000000&quot;&gt;&lt;b style=&quot;font-size: 11px;&quot;&gt;Опишите повреждение подробнее&lt;/b&gt;&lt;/font&gt;" style="text;html=1;align=center;verticalAlign=middle;whiteSpace=wrap;rounded=0;fontColor=#FFFFFF;" parent="gbMeWAc4eFgvEXpcVc5o-101" vertex="1">
          <mxGeometry x="7.5" y="20" width="125" height="30" as="geometry" />
        </mxCell>
        <mxCell id="gbMeWAc4eFgvEXpcVc5o-96" value="" style="rounded=1;whiteSpace=wrap;html=1;strokeColor=#000000;fontColor=#FFFFFF;fillColor=#FFFFFF;" parent="gbMeWAc4eFgvEXpcVc5o-101" vertex="1">
          <mxGeometry y="60" width="140" height="160" as="geometry" />
        </mxCell>
        <mxCell id="gbMeWAc4eFgvEXpcVc5o-98" value="&lt;font style=&quot;font-size: 10px;&quot; face=&quot;Garamond&quot;&gt;&lt;font style=&quot;font-size: 10px;&quot; color=&quot;#b3b3b3&quot;&gt;Введите текст&lt;/font&gt;&lt;/font&gt;" style="shape=partialRectangle;whiteSpace=wrap;html=1;right=0;top=0;bottom=0;fillColor=none;routingCenterX=-0.5;strokeColor=#000000;fontColor=#FFFFFF;" parent="gbMeWAc4eFgvEXpcVc5o-101" vertex="1">
          <mxGeometry x="10" y="80" width="100" height="10" as="geometry" />
        </mxCell>
        <mxCell id="gbMeWAc4eFgvEXpcVc5o-99" value="&lt;font face=&quot;Garamond&quot; style=&quot;font-size: 11px;&quot;&gt;Готово&lt;/font&gt;" style="rounded=1;whiteSpace=wrap;html=1;strokeColor=#FFFFFF;fontColor=#FFFFFF;fillColor=#6666FF;arcSize=37;" parent="gbMeWAc4eFgvEXpcVc5o-101" vertex="1">
          <mxGeometry x="10" y="240" width="120" height="20" as="geometry" />
        </mxCell>
        <mxCell id="gbMeWAc4eFgvEXpcVc5o-75" value="" style="group" parent="1" vertex="1" connectable="0">
          <mxGeometry x="240" y="420" width="140" height="280" as="geometry" />
        </mxCell>
        <mxCell id="gbMeWAc4eFgvEXpcVc5o-76" value="" style="group" parent="gbMeWAc4eFgvEXpcVc5o-75" vertex="1" connectable="0">
          <mxGeometry width="140" height="280" as="geometry" />
        </mxCell>
        <mxCell id="gbMeWAc4eFgvEXpcVc5o-70" value="" style="rounded=1;whiteSpace=wrap;html=1;strokeColor=#000000;fontColor=#FFFFFF;fillColor=#FAE8FF;strokeWidth=1;" parent="gbMeWAc4eFgvEXpcVc5o-76" vertex="1">
          <mxGeometry width="140" height="280" as="geometry" />
        </mxCell>
        <mxCell id="gbMeWAc4eFgvEXpcVc5o-69" value="" style="group;perimeterSpacing=2;rounded=1;strokeColor=default;labelBorderColor=default;strokeWidth=1;arcSize=9;fillColor=default;" parent="gbMeWAc4eFgvEXpcVc5o-76" vertex="1" connectable="0">
          <mxGeometry y="10" width="140" height="120" as="geometry" />
        </mxCell>
        <mxCell id="gbMeWAc4eFgvEXpcVc5o-12" value="&lt;font style=&quot;font-size: 10px;&quot; face=&quot;Garamond&quot;&gt;&lt;b&gt;Стоимость поездки&lt;/b&gt;&lt;/font&gt;" style="text;html=1;align=center;verticalAlign=middle;whiteSpace=wrap;rounded=0;fontColor=#000000;" parent="gbMeWAc4eFgvEXpcVc5o-69" vertex="1">
          <mxGeometry x="10" y="10.000000000000002" width="120" height="8.000000000000002" as="geometry" />
        </mxCell>
        <mxCell id="gbMeWAc4eFgvEXpcVc5o-15" value="&lt;font style=&quot;font-size: 9px;&quot; face=&quot;Garamond&quot;&gt;Поездка&lt;/font&gt;" style="text;html=1;align=center;verticalAlign=middle;whiteSpace=wrap;rounded=0;fontColor=#000000;fontFamily=Helvetica;" parent="gbMeWAc4eFgvEXpcVc5o-69" vertex="1">
          <mxGeometry y="48" width="50" height="8.000000000000002" as="geometry" />
        </mxCell>
        <mxCell id="gbMeWAc4eFgvEXpcVc5o-14" value="&lt;font style=&quot;font-size: 9px;&quot; face=&quot;Garamond&quot;&gt;&amp;nbsp; Старт поездки&lt;/font&gt;" style="text;html=1;align=center;verticalAlign=middle;whiteSpace=wrap;rounded=0;fontColor=#000000;fontFamily=Helvetica;" parent="gbMeWAc4eFgvEXpcVc5o-69" vertex="1">
          <mxGeometry y="40" width="70" height="8.000000000000002" as="geometry" />
        </mxCell>
        <mxCell id="gbMeWAc4eFgvEXpcVc5o-18" value="&lt;font face=&quot;Garamond&quot; size=&quot;1&quot;&gt;&amp;nbsp;55&amp;nbsp;₽&lt;/font&gt;" style="text;html=1;align=center;verticalAlign=middle;whiteSpace=wrap;rounded=0;fontColor=#000000;fontFamily=Helvetica;" parent="gbMeWAc4eFgvEXpcVc5o-69" vertex="1">
          <mxGeometry x="100" y="40" width="30" height="8.000000000000002" as="geometry" />
        </mxCell>
        <mxCell id="gbMeWAc4eFgvEXpcVc5o-17" value="&lt;span style=&quot;font-family: Garamond; font-size: x-small;&quot;&gt;52,16 ₽&lt;/span&gt;" style="text;html=1;align=center;verticalAlign=middle;whiteSpace=wrap;rounded=0;fontColor=#000000;fontFamily=Helvetica;" parent="gbMeWAc4eFgvEXpcVc5o-69" vertex="1">
          <mxGeometry x="90" y="48" width="40" height="8.000000000000002" as="geometry" />
        </mxCell>
        <mxCell id="gbMeWAc4eFgvEXpcVc5o-19" value="&lt;font style=&quot;&quot; face=&quot;Garamond&quot; size=&quot;1&quot;&gt;&lt;b style=&quot;font-size: 11px;&quot;&gt;Итого&lt;/b&gt;&lt;/font&gt;" style="text;html=1;align=center;verticalAlign=middle;whiteSpace=wrap;rounded=0;fontColor=#000000;fontFamily=Helvetica;" parent="gbMeWAc4eFgvEXpcVc5o-69" vertex="1">
          <mxGeometry y="64" width="50" height="8.000000000000002" as="geometry" />
        </mxCell>
        <mxCell id="gbMeWAc4eFgvEXpcVc5o-20" value="&lt;span style=&quot;font-family: Garamond;&quot;&gt;&lt;b style=&quot;&quot;&gt;&lt;font style=&quot;font-size: 11px;&quot;&gt;107,16 ₽&lt;/font&gt;&lt;/b&gt;&lt;/span&gt;" style="text;html=1;align=center;verticalAlign=middle;whiteSpace=wrap;rounded=0;fontColor=#000000;fontFamily=Helvetica;" parent="gbMeWAc4eFgvEXpcVc5o-69" vertex="1">
          <mxGeometry x="80" y="64" width="50" height="8.000000000000002" as="geometry" />
        </mxCell>
        <mxCell id="gbMeWAc4eFgvEXpcVc5o-24" value="&lt;font style=&quot;font-size: 9px;&quot; face=&quot;Garamond&quot;&gt;&amp;nbsp; Оплачено картой&lt;/font&gt;" style="text;html=1;align=center;verticalAlign=middle;whiteSpace=wrap;rounded=0;fontColor=#000000;fontFamily=Helvetica;" parent="gbMeWAc4eFgvEXpcVc5o-69" vertex="1">
          <mxGeometry y="96.00000000000001" width="80" height="8.000000000000002" as="geometry" />
        </mxCell>
        <mxCell id="gbMeWAc4eFgvEXpcVc5o-22" value="&lt;span style=&quot;font-family: Garamond; font-size: x-small;&quot;&gt;&amp;nbsp;107,16 ₽&lt;/span&gt;" style="text;html=1;align=center;verticalAlign=middle;whiteSpace=wrap;rounded=0;fontColor=#000000;fontFamily=Helvetica;" parent="gbMeWAc4eFgvEXpcVc5o-69" vertex="1">
          <mxGeometry x="85" y="96.00000000000001" width="40" height="8.000000000000002" as="geometry" />
        </mxCell>
        <mxCell id="gbMeWAc4eFgvEXpcVc5o-23" value="&lt;font face=&quot;Garamond&quot; size=&quot;1&quot;&gt;&amp;nbsp; 0&amp;nbsp;₽&lt;/font&gt;" style="text;html=1;align=center;verticalAlign=middle;whiteSpace=wrap;rounded=0;fontColor=#000000;fontFamily=Helvetica;" parent="gbMeWAc4eFgvEXpcVc5o-69" vertex="1">
          <mxGeometry x="100" y="88" width="30" height="8.000000000000002" as="geometry" />
        </mxCell>
        <mxCell id="gbMeWAc4eFgvEXpcVc5o-21" value="&lt;font style=&quot;font-size: 9px;&quot; face=&quot;Garamond&quot;&gt;&amp;nbsp; Оплачено бонусами&lt;/font&gt;" style="text;html=1;align=center;verticalAlign=middle;whiteSpace=wrap;rounded=0;fontColor=#000000;fontFamily=Helvetica;" parent="gbMeWAc4eFgvEXpcVc5o-69" vertex="1">
          <mxGeometry y="88.00000000000001" width="90" height="8.000000000000002" as="geometry" />
        </mxCell>
        <mxCell id="HiUm5hrCSIXa4_qHgKS4-33" value="" style="ellipse;whiteSpace=wrap;html=1;aspect=fixed;strokeColor=#B3B3B3;" vertex="1" parent="gbMeWAc4eFgvEXpcVc5o-69">
          <mxGeometry x="115" y="2.0000000000000004" width="16.000000000000004" height="16.000000000000004" as="geometry" />
        </mxCell>
        <mxCell id="HiUm5hrCSIXa4_qHgKS4-34" value="&lt;font color=&quot;#808080&quot; face=&quot;Garamond&quot; style=&quot;font-size: 10px;&quot;&gt;X&lt;/font&gt;" style="text;html=1;align=center;verticalAlign=middle;whiteSpace=wrap;rounded=0;" vertex="1" parent="gbMeWAc4eFgvEXpcVc5o-69">
          <mxGeometry x="112.5" y="2.0000000000000004" width="25" height="14" as="geometry" />
        </mxCell>
        <mxCell id="gbMeWAc4eFgvEXpcVc5o-74" value="" style="group" parent="gbMeWAc4eFgvEXpcVc5o-76" vertex="1" connectable="0">
          <mxGeometry y="140" width="140" height="140" as="geometry" />
        </mxCell>
        <mxCell id="gbMeWAc4eFgvEXpcVc5o-73" value="" style="rounded=1;whiteSpace=wrap;html=1;strokeColor=#000000;fontColor=#FFFFFF;fillColor=#FFFFFF;" parent="gbMeWAc4eFgvEXpcVc5o-74" vertex="1">
          <mxGeometry width="140" height="140" as="geometry" />
        </mxCell>
        <mxCell id="HiUm5hrCSIXa4_qHgKS4-22" value="&lt;font style=&quot;font-size: 9px;&quot; face=&quot;Garamond&quot;&gt;Деньги&amp;nbsp; будут возвращены в случае подтверждения поломки в течение суток&amp;nbsp;&lt;/font&gt;" style="text;html=1;align=center;verticalAlign=middle;whiteSpace=wrap;rounded=0;fontColor=#000000;fontFamily=Helvetica;" vertex="1" parent="gbMeWAc4eFgvEXpcVc5o-74">
          <mxGeometry x="10" y="30" width="120" height="45.3" as="geometry" />
        </mxCell>
        <mxCell id="HiUm5hrCSIXa4_qHgKS4-29" value="&lt;font style=&quot;font-size: 10px;&quot; face=&quot;Garamond&quot;&gt;&lt;b&gt;При отсутствии повреждения будет начислен штраф в размере 3000&amp;nbsp;&lt;font style=&quot;font-size: 10px;&quot;&gt;₽&lt;/font&gt;&amp;nbsp;&lt;/b&gt;&lt;/font&gt;" style="text;html=1;align=center;verticalAlign=middle;whiteSpace=wrap;rounded=0;" vertex="1" parent="gbMeWAc4eFgvEXpcVc5o-74">
          <mxGeometry x="5" y="80.00363636363637" width="135" height="42" as="geometry" />
        </mxCell>
        <mxCell id="HiUm5hrCSIXa4_qHgKS4-38" value="&lt;font style=&quot;font-size: 10px;&quot; face=&quot;Garamond&quot;&gt;&lt;b&gt;Самокат убран с линии&lt;/b&gt;&lt;/font&gt;" style="text;html=1;align=center;verticalAlign=middle;whiteSpace=wrap;rounded=0;fontColor=#000000;" vertex="1" parent="gbMeWAc4eFgvEXpcVc5o-74">
          <mxGeometry x="10" y="10" width="120" height="8.000000000000002" as="geometry" />
        </mxCell>
        <mxCell id="gbMeWAc4eFgvEXpcVc5o-102" value="" style="rounded=1;whiteSpace=wrap;html=1;strokeColor=#000000;fontColor=#FFFFFF;fillColor=#FAE8FF;" parent="1" vertex="1">
          <mxGeometry x="30" y="80" width="140" height="280" as="geometry" />
        </mxCell>
        <mxCell id="gbMeWAc4eFgvEXpcVc5o-104" value="" style="rounded=1;whiteSpace=wrap;html=1;strokeColor=#000000;fontColor=#FFFFFF;fillColor=#FFFFFF;" parent="1" vertex="1">
          <mxGeometry x="30" y="240" width="140" height="120" as="geometry" />
        </mxCell>
        <mxCell id="gbMeWAc4eFgvEXpcVc5o-108" value="&lt;font style=&quot;font-size: 10px;&quot; color=&quot;#000000&quot; face=&quot;Garamond&quot;&gt;+ Взять еще&lt;/font&gt;" style="rounded=1;whiteSpace=wrap;html=1;strokeColor=#000000;fontColor=#FFFFFF;fillColor=#FFFFFF;arcSize=50;" parent="1" vertex="1">
          <mxGeometry x="40" y="90" width="60" height="20" as="geometry" />
        </mxCell>
        <mxCell id="gbMeWAc4eFgvEXpcVc5o-109" value="Карта" style="text;html=1;align=center;verticalAlign=middle;whiteSpace=wrap;rounded=0;fontColor=#FFFFFF;" parent="1" vertex="1">
          <mxGeometry x="70" y="165" width="60" height="30" as="geometry" />
        </mxCell>
        <mxCell id="gbMeWAc4eFgvEXpcVc5o-121" value="&lt;span style=&quot;font-family: Garamond;&quot;&gt;&lt;b style=&quot;&quot;&gt;&lt;font style=&quot;font-size: 11px;&quot;&gt;107,16 ₽&lt;/font&gt;&lt;/b&gt;&lt;/span&gt;" style="text;html=1;align=center;verticalAlign=middle;whiteSpace=wrap;rounded=0;fontColor=#000000;fontFamily=Helvetica;" parent="1" vertex="1">
          <mxGeometry x="30" y="260" width="50" height="10" as="geometry" />
        </mxCell>
        <mxCell id="gbMeWAc4eFgvEXpcVc5o-122" value="&lt;span style=&quot;font-family: Garamond;&quot;&gt;&lt;b style=&quot;&quot;&gt;&lt;font style=&quot;font-size: 11px;&quot;&gt;3:40&lt;/font&gt;&lt;/b&gt;&lt;/span&gt;" style="text;html=1;align=center;verticalAlign=middle;whiteSpace=wrap;rounded=0;fontColor=#000000;fontFamily=Helvetica;" parent="1" vertex="1">
          <mxGeometry x="75" y="260" width="50" height="10" as="geometry" />
        </mxCell>
        <mxCell id="gbMeWAc4eFgvEXpcVc5o-123" value="&lt;span style=&quot;font-family: Garamond;&quot;&gt;&lt;b style=&quot;&quot;&gt;&lt;font style=&quot;font-size: 11px;&quot;&gt;0,3 км&lt;/font&gt;&lt;/b&gt;&lt;/span&gt;" style="text;html=1;align=center;verticalAlign=middle;whiteSpace=wrap;rounded=0;fontColor=#000000;fontFamily=Helvetica;" parent="1" vertex="1">
          <mxGeometry x="120" y="260" width="50" height="10" as="geometry" />
        </mxCell>
        <mxCell id="gbMeWAc4eFgvEXpcVc5o-124" value="" style="line;strokeWidth=2;html=1;strokeColor=#E6E6E6;fontColor=#FFFFFF;fillColor=#182E3E;" parent="1" vertex="1">
          <mxGeometry x="90" y="240" width="20" height="10" as="geometry" />
        </mxCell>
        <mxCell id="gbMeWAc4eFgvEXpcVc5o-125" value="" style="rounded=1;whiteSpace=wrap;html=1;strokeColor=#B3B3B3;fontColor=#FFFFFF;fillColor=#FFFFFF;" parent="1" vertex="1">
          <mxGeometry x="40" y="275" width="120" height="35" as="geometry" />
        </mxCell>
        <mxCell id="gbMeWAc4eFgvEXpcVc5o-126" value="&lt;font color=&quot;#000000&quot;&gt;Самокат включен № {***-***}&lt;/font&gt;" style="text;html=1;align=center;verticalAlign=middle;whiteSpace=wrap;rounded=0;fontColor=#FFFFFF;fontFamily=Garamond;fontSize=9;" parent="1" vertex="1">
          <mxGeometry x="40" y="277.5" width="80" height="30" as="geometry" />
        </mxCell>
        <mxCell id="gbMeWAc4eFgvEXpcVc5o-127" value="" style="rounded=1;whiteSpace=wrap;html=1;strokeColor=#FFFFFF;fontColor=#FFFFFF;fillColor=#33FF99;arcSize=39;" parent="1" vertex="1">
          <mxGeometry x="125" y="283.75" width="30" height="17.5" as="geometry" />
        </mxCell>
        <mxCell id="gbMeWAc4eFgvEXpcVc5o-128" value="&lt;font style=&quot;font-size: 8px;&quot; face=&quot;Garamond&quot;&gt;100%&lt;/font&gt;" style="text;html=1;align=center;verticalAlign=middle;whiteSpace=wrap;rounded=0;fontColor=#FFFFFF;" parent="1" vertex="1">
          <mxGeometry x="125" y="283.75" width="30" height="15" as="geometry" />
        </mxCell>
        <mxCell id="gbMeWAc4eFgvEXpcVc5o-129" value="&lt;font style=&quot;font-size: 9px;&quot; face=&quot;Garamond&quot; color=&quot;#000000&quot;&gt;&lt;b&gt;|| &lt;/b&gt;Пауза&lt;/font&gt;" style="rounded=1;whiteSpace=wrap;html=1;strokeColor=#E6E6E6;fontColor=#FFFFFF;fillColor=#E6E6E6;arcSize=31;" parent="1" vertex="1">
          <mxGeometry x="40" y="320" width="60" height="28.75" as="geometry" />
        </mxCell>
        <mxCell id="HiUm5hrCSIXa4_qHgKS4-14" value="" style="edgeStyle=orthogonalEdgeStyle;rounded=0;orthogonalLoop=1;jettySize=auto;html=1;entryX=0;entryY=0.5;entryDx=0;entryDy=0;" edge="1" parent="1" source="gbMeWAc4eFgvEXpcVc5o-130" target="gbMeWAc4eFgvEXpcVc5o-103">
          <mxGeometry relative="1" as="geometry" />
        </mxCell>
        <mxCell id="gbMeWAc4eFgvEXpcVc5o-130" value="&lt;font style=&quot;font-size: 9px;&quot; face=&quot;Garamond&quot;&gt;Завершить&lt;/font&gt;" style="rounded=1;whiteSpace=wrap;html=1;strokeColor=#FFFFFF;fontColor=#FFFFFF;fillColor=#182E3E;arcSize=31;" parent="1" vertex="1">
          <mxGeometry x="100" y="320" width="60" height="28.75" as="geometry" />
        </mxCell>
        <mxCell id="gbMeWAc4eFgvEXpcVc5o-148" value="" style="group" parent="1" vertex="1" connectable="0">
          <mxGeometry x="140" y="170" width="20" height="40" as="geometry" />
        </mxCell>
        <mxCell id="gbMeWAc4eFgvEXpcVc5o-111" value="" style="rounded=1;whiteSpace=wrap;html=1;strokeColor=#000000;fontColor=#FFFFFF;fillColor=#FFFFFF;rotation=90;" parent="gbMeWAc4eFgvEXpcVc5o-148" vertex="1">
          <mxGeometry x="-10" y="10" width="40" height="20" as="geometry" />
        </mxCell>
        <mxCell id="gbMeWAc4eFgvEXpcVc5o-113" value="+" style="text;html=1;align=center;verticalAlign=middle;whiteSpace=wrap;rounded=0;fontColor=#000000;" parent="gbMeWAc4eFgvEXpcVc5o-148" vertex="1">
          <mxGeometry y="5" width="20" height="10" as="geometry" />
        </mxCell>
        <mxCell id="gbMeWAc4eFgvEXpcVc5o-112" value="" style="line;strokeWidth=2;html=1;strokeColor=#E6E6E6;fontColor=#FFFFFF;fillColor=#182E3E;" parent="gbMeWAc4eFgvEXpcVc5o-148" vertex="1">
          <mxGeometry y="15" width="20" height="15" as="geometry" />
        </mxCell>
        <mxCell id="gbMeWAc4eFgvEXpcVc5o-114" value="-" style="text;html=1;align=center;verticalAlign=middle;whiteSpace=wrap;rounded=0;fontColor=#000000;" parent="gbMeWAc4eFgvEXpcVc5o-148" vertex="1">
          <mxGeometry y="25" width="20" height="10" as="geometry" />
        </mxCell>
        <mxCell id="HiUm5hrCSIXa4_qHgKS4-1" value="" style="group" vertex="1" connectable="0" parent="1">
          <mxGeometry x="140" y="170" width="20" height="40" as="geometry" />
        </mxCell>
        <mxCell id="HiUm5hrCSIXa4_qHgKS4-2" value="" style="rounded=1;whiteSpace=wrap;html=1;strokeColor=#000000;fontColor=#FFFFFF;fillColor=#FFFFFF;rotation=90;" vertex="1" parent="HiUm5hrCSIXa4_qHgKS4-1">
          <mxGeometry x="-10" y="10" width="40" height="20" as="geometry" />
        </mxCell>
        <mxCell id="HiUm5hrCSIXa4_qHgKS4-3" value="+" style="text;html=1;align=center;verticalAlign=middle;whiteSpace=wrap;rounded=0;fontColor=#000000;" vertex="1" parent="HiUm5hrCSIXa4_qHgKS4-1">
          <mxGeometry y="5" width="20" height="10" as="geometry" />
        </mxCell>
        <mxCell id="HiUm5hrCSIXa4_qHgKS4-4" value="" style="line;strokeWidth=2;html=1;strokeColor=#E6E6E6;fontColor=#FFFFFF;fillColor=#182E3E;" vertex="1" parent="HiUm5hrCSIXa4_qHgKS4-1">
          <mxGeometry y="15" width="20" height="15" as="geometry" />
        </mxCell>
        <mxCell id="HiUm5hrCSIXa4_qHgKS4-5" value="-" style="text;html=1;align=center;verticalAlign=middle;whiteSpace=wrap;rounded=0;fontColor=#000000;" vertex="1" parent="HiUm5hrCSIXa4_qHgKS4-1">
          <mxGeometry y="25" width="20" height="10" as="geometry" />
        </mxCell>
        <mxCell id="gbMeWAc4eFgvEXpcVc5o-83" value="&lt;font color=&quot;#000000&quot; style=&quot;font-size: 10px;&quot; face=&quot;Garamond&quot;&gt;Экран 1. Завершение поездки&lt;/font&gt;" style="rounded=0;whiteSpace=wrap;html=1;strokeColor=#808080;fontColor=#FFFFFF;fillColor=#E6E6E6;" parent="1" vertex="1">
          <mxGeometry x="30" y="50" width="140" height="20" as="geometry" />
        </mxCell>
        <mxCell id="HiUm5hrCSIXa4_qHgKS4-18" value="&lt;font color=&quot;#000000&quot; style=&quot;font-size: 8px;&quot; face=&quot;Garamond&quot;&gt;Экран 2. Сообщение о неисправности&lt;/font&gt;" style="rounded=0;whiteSpace=wrap;html=1;strokeColor=#808080;fontColor=#FFFFFF;fillColor=#E6E6E6;verticalAlign=middle;" vertex="1" parent="1">
          <mxGeometry x="240" y="50" width="140" height="20" as="geometry" />
        </mxCell>
        <mxCell id="HiUm5hrCSIXa4_qHgKS4-28" value="" style="edgeStyle=orthogonalEdgeStyle;rounded=0;orthogonalLoop=1;jettySize=auto;html=1;" edge="1" parent="1" source="HiUm5hrCSIXa4_qHgKS4-19">
          <mxGeometry relative="1" as="geometry">
            <mxPoint x="240" y="540" as="targetPoint" />
          </mxGeometry>
        </mxCell>
        <mxCell id="HiUm5hrCSIXa4_qHgKS4-19" value="" style="rounded=1;whiteSpace=wrap;html=1;strokeColor=#000000;fontColor=#FFFFFF;fillColor=#FAE8FF;" vertex="1" parent="1">
          <mxGeometry x="30" y="420" width="140" height="280" as="geometry" />
        </mxCell>
        <mxCell id="HiUm5hrCSIXa4_qHgKS4-26" value="" style="edgeStyle=orthogonalEdgeStyle;rounded=0;orthogonalLoop=1;jettySize=auto;html=1;entryX=0;entryY=0.5;entryDx=0;entryDy=0;exitX=0.5;exitY=1;exitDx=0;exitDy=0;" edge="1" parent="1" target="HiUm5hrCSIXa4_qHgKS4-19">
          <mxGeometry relative="1" as="geometry">
            <mxPoint x="720" y="340" as="sourcePoint" />
            <mxPoint x="20" y="590" as="targetPoint" />
            <Array as="points">
              <mxPoint x="720" y="380" />
              <mxPoint x="10" y="380" />
              <mxPoint x="10" y="540" />
            </Array>
          </mxGeometry>
        </mxCell>
        <mxCell id="HiUm5hrCSIXa4_qHgKS4-27" value="&lt;font size=&quot;1&quot; style=&quot;&quot; face=&quot;Garamond&quot; color=&quot;#000000&quot;&gt;&lt;b style=&quot;font-size: 11px;&quot;&gt;Служба поддержки обрабатывает запрос&lt;/b&gt;&lt;/font&gt;&lt;div&gt;&lt;font face=&quot;Garamond&quot; color=&quot;#000000&quot;&gt;&lt;span style=&quot;font-size: 11px;&quot;&gt;&lt;b&gt;&lt;br&gt;&lt;/b&gt;&lt;/span&gt;&lt;/font&gt;&lt;/div&gt;&lt;div&gt;&lt;font face=&quot;Garamond&quot; color=&quot;#000000&quot;&gt;&lt;span style=&quot;font-size: 11px;&quot;&gt;&lt;b&gt;&lt;br&gt;&lt;/b&gt;&lt;/span&gt;&lt;/font&gt;&lt;div&gt;&lt;font size=&quot;1&quot; style=&quot;&quot; face=&quot;Garamond&quot; color=&quot;#000000&quot;&gt;&lt;b style=&quot;font-size: 11px;&quot;&gt;&lt;br&gt;&lt;/b&gt;&lt;/font&gt;&lt;/div&gt;&lt;div&gt;&lt;font face=&quot;Garamond&quot; color=&quot;#000000&quot;&gt;&lt;span style=&quot;font-size: 11px;&quot;&gt;Ожидание может занять до 5 минут&lt;/span&gt;&lt;/font&gt;&lt;/div&gt;&lt;/div&gt;" style="text;html=1;align=center;verticalAlign=middle;whiteSpace=wrap;rounded=0;fontColor=#FFFFFF;" vertex="1" parent="1">
          <mxGeometry x="37.5" y="470" width="125" height="120" as="geometry" />
        </mxCell>
        <mxCell id="HiUm5hrCSIXa4_qHgKS4-35" value="&lt;font color=&quot;#000000&quot; style=&quot;font-size: 9px;&quot; face=&quot;Garamond&quot;&gt;Экран 5. Ожидание подтверждения&lt;/font&gt;" style="rounded=0;whiteSpace=wrap;html=1;strokeColor=#808080;fontColor=#FFFFFF;fillColor=#E6E6E6;" vertex="1" parent="1">
          <mxGeometry x="30" y="390" width="140" height="20" as="geometry" />
        </mxCell>
        <mxCell id="HiUm5hrCSIXa4_qHgKS4-36" value="&lt;font color=&quot;#000000&quot; style=&quot;font-size: 10px;&quot; face=&quot;Garamond&quot;&gt;Экран 6. Поездка завершена&lt;/font&gt;" style="rounded=0;whiteSpace=wrap;html=1;strokeColor=#808080;fontColor=#FFFFFF;fillColor=#E6E6E6;" vertex="1" parent="1">
          <mxGeometry x="240" y="390" width="140" height="20" as="geometry" />
        </mxCell>
      </root>
    </mxGraphModel>
  </diagram>
</mxfile>
